<svg width="400" height="250" viewBox="0 0 400 250" fill="none" xmlns="http://www.w3.org/2000/svg">
<rect width="400" height="250" fill="#F1F5F9"/>
<g clip-path="url(#clip0_16_2)">
<path d="M186.75 145.833L204.167 155.333V166.667H175C170.375 166.667 166.667 162.958 166.667 158.333V91.6666C166.667 89.4565 167.545 87.3369 169.107 85.7741C170.67 84.2113 172.79 83.3333 175 83.3333H179.167V112.5L189.583 106.25L200 112.5V83.3333H225C227.21 83.3333 229.33 84.2113 230.893 85.7741C232.455 87.3369 233.333 89.4565 233.333 91.6666V127.25L227.083 123.833L186.75 145.833ZM250 145.833L227.083 133.333L204.167 145.833L227.083 158.333L250 145.833ZM212.5 154.542V162.875L227.083 170.833L241.667 162.875V154.542L227.083 162.5L212.5 154.542Z" fill="#CBCFFA"/>
</g>
<defs>
<clipPath id="clip0_16_2">
<rect width="100" height="100" fill="white" transform="translate(150 75)"/>
</clipPath>
</defs>
</svg>
